<?xml version="1.0" encoding="utf-8"?>
<!-- Generator: Adobe Illustrator 23.0.4, SVG Export Plug-In . SVG Version: 6.00 Build 0)  -->
<svg version="1.1" id="Layer_1" xmlns="http://www.w3.org/2000/svg" xmlns:xlink="http://www.w3.org/1999/xlink" x="0px" y="0px"
	 viewBox="0 0 1000 1000" style="enable-background:new 0 0 1000 1000;" xml:space="preserve">
<style type="text/css">
	.st0{fill:#F47421;}
</style>
<path class="st0" d="M311.8,506.5c17.1-1.9,41.9-18.6,41.9-53.7c0-41.9-30.4-69.6-77.3-69.6h-54c-3.7,8.8-11.3,15.7-20.9,18.3
	c0.2,0.9,0.3,1.8,0.4,2.8c1.9,17.2-10.5,32.6-27.6,34.5c-4.6,0.5-9,0-13.1-1.4c-2.2,9.2-8.4,16.9-16.9,21v167.8
	c0,6.7,5.4,12.1,12.1,12.1h120.3c55.6,0,84.1-29.3,84.1-71.5C360.9,528.2,335.4,508.4,311.8,506.5z M207.2,438
	c0-2.3,1.9-4.2,4.2-4.2h54.5c14.4,0,26.7,11.4,26.9,25.8c0.2,17.4-12,29-30.8,29h-50.6c-2.3,0-4.2-1.9-4.2-4.2V438z M265.8,587.5
	h-54.4c-2.3,0-4.2-1.9-4.2-4.2v-47.5c0-2.3,1.9-4.2,4.2-4.2h55.5c17.9,0,30.1,10.7,30.1,27.4C297,576.5,285.9,587.5,265.8,587.5z"/>
<path class="st0" d="M465.2,390.8c0,19.4-14.8,33.9-35.4,33.9c-20.6,0-35-14.5-35-33.9c0-18.6,14.5-34.6,35-34.6
	C450.3,356.1,465.2,372.1,465.2,390.8z M399.3,626.1V459.2c0-6.7,5.4-12.1,12.1-12.1h36.7c6.7,0,12.1,5.4,12.1,12.1v166.9
	c0,6.7-5.4,12.1-12.1,12.1h-36.7C404.7,638.1,399.3,632.7,399.3,626.1z"/>
<path class="st0" d="M646.1,620.1c1.7,5.8-1.1,11.9-6.6,14.4c-12.2,5.5-25.5,9.3-42.7,9.3c-47.6,0-76.1-25.9-76.1-76.1v-72.3h-22.5
	c-6.7,0-12.1-5.4-12.1-12.1v-24.2c0-6.7,5.4-12.1,12.1-12.1h22.5v-51.8c0-6.7,5.4-12.1,12.1-12.1h36.7c6.7,0,12.1,5.4,12.1,12.1
	v51.8h44.2c6.7,0,12.1,5.4,12.1,12.1v24.2c0,6.7-5.4,12.1-12.1,12.1h-44.2v66.2c0,19.8,9.5,27.8,25.5,27.8c4.8,0,10.7-1,16.3-2.7
	c6.5-2,13.4,1.6,15.3,8.1L646.1,620.1z"/>
<path class="st0" d="M843.5,558.2H720.3c-2.4,0-4.2,2.4-3.5,4.7c6,20,20.8,32.2,39.9,32.2c12.3,0,26.4-2.6,36.7-15.9
	c2.9-3.7,7.6-5.5,12.2-4.5l30.5,6.2c8.1,1.7,12.3,10.9,8,18c-18.3,30.3-49.4,44.9-87.4,44.9c-55.2,0-100.9-40.7-100.9-101.2
	c0-60.1,45.7-101.2,101.2-101.2c54,0,97.4,38.8,98.6,101.2v3.5C855.6,552.8,850.2,558.2,843.5,558.2z M722,520.9l68.4,0
	c2.6,0,4.4-2.7,3.4-5.1c-6.7-17-20.8-25-36.7-25c-15.5,0-31.4,8.8-38.4,24.8C717.6,518.2,719.3,520.9,722,520.9z"/>
</svg>
