<svg xmlns="http://www.w3.org/2000/svg" width="83" height="34" viewBox="0 0 83 34"><g><g clip-path="url(#clip-9709ECF1-783D-4B30-B8CC-85692E264D5E)"><path fill="#f37421" d="M19.493 17.692c2.747.226 5.715 2.572 5.715 7.13 0 5.01-3.323 8.485-9.79 8.485H1.407C.63 33.307 0 32.665 0 31.873V11.978a3.703 3.703 0 0 0 1.964-2.485c.476.157.99.22 1.52.16C5.483 9.43 6.924 7.6 6.704 5.566a3.821 3.821 0 0 0-.053-.33A3.662 3.662 0 0 0 9.086 3.07h6.287c5.45 0 8.993 3.294 8.993 8.259 0 4.152-2.88 6.137-4.873 6.363zM7.31 15.072c0 .276.22.499.49.499h5.89c2.19 0 3.614-1.379 3.588-3.44-.022-1.71-1.45-3.059-3.129-3.059h-6.35c-.27 0-.49.223-.49.499zm6.822 12.232c2.349 0 3.633-1.308 3.633-3.384 0-1.986-1.417-3.25-3.5-3.25H7.8c-.27 0-.49.224-.49.5v5.636c0 .275.22.498.49.498z"/></g><g clip-path="url(#clip-81A84958-3C21-43E0-8E38-747B370914C7)"><path fill="#f37421" d="M37.27 4.117c0-2.2-1.76-4.087-4.198-4.087-2.437 0-4.152 1.886-4.152 4.087 0 2.29 1.715 3.996 4.152 3.996 2.437 0 4.198-1.706 4.198-3.996m-7.808 27.771a1.43 1.43 0 0 0 1.433 1.428h4.354a1.43 1.43 0 0 0 1.434-1.428V12.19a1.43 1.43 0 0 0-1.434-1.427h-4.354a1.43 1.43 0 0 0-1.433 1.427v19.698"/></g><g><path fill="#f37421" d="M58.288 31.227a1.412 1.412 0 0 1-.77 1.682c-1.413.645-2.963 1.088-4.955 1.088-5.525 0-8.84-3.013-8.84-8.863v-8.42h-2.619c-.775 0-1.404-.63-1.404-1.408v-2.813c0-.777.629-1.408 1.404-1.408h2.618V5.048c0-.778.63-1.408 1.405-1.408h4.263c.776 0 1.405.63 1.405 1.408v6.037h5.138c.775 0 1.404.63 1.404 1.408v2.813c0 .777-.629 1.408-1.404 1.408h-5.138v7.71c0 2.305 1.105 3.236 2.961 3.236.56 0 1.238-.118 1.89-.32a1.41 1.41 0 0 1 1.78.943z"/></g><g><path fill="#f37421" d="M81.612 23.984H67.52a.43.43 0 0 0-.406.55c.683 2.345 2.379 3.768 4.563 3.768 1.413 0 3.026-.309 4.194-1.855.33-.435.873-.642 1.4-.531l3.485.727c.931.194 1.405 1.274.914 2.107-2.087 3.538-5.646 5.249-9.993 5.249-6.312 0-11.536-4.763-11.536-11.84 0-7.032 5.224-11.839 11.58-11.839 6.182 0 11.145 4.54 11.275 11.84v.41c0 .781-.62 1.414-1.383 1.414m-13.906-4.372h7.818c.3 0 .498-.31.389-.594-.762-1.986-2.371-2.912-4.198-2.912a4.788 4.788 0 0 0-4.392 2.898c-.123.286.077.608.383.608"/></g></g></svg>